Amstelvar-Roman_opsz144_wdth50.ufo
<glyph name="V" format="2">
  <advance width="870"/>
  <unicode hex="0056"/>
  <anchor x="435.0" y="0" name="bottom"/>
  <anchor x="435.0" y="1500" name="top"/>
  <outline>
    <contour>
      <point x="-9" y="1480" type="line"/>
      <point x="-9" y="1500" type="line"/>
      <point x="335" y="1500" type="line"/>
      <point x="335" y="1480" type="line"/>
      <point x="223" y="1445" type="line"/>
      <point x="339" y="849" type="line"/>
      <point x="443" y="312" type="line"/>
      <point x="476" y="142" type="line"/>
      <point x="476" y="142" type="line"/>
      <point x="507" y="312" type="line"/>
      <point x="606" y="863" type="line"/>
      <point x="708" y="1445" type="line"/>
      <point x="548" y="1480" type="line"/>
      <point x="548" y="1500" type="line"/>
      <point x="882" y="1500" type="line"/>
      <point x="882" y="1480" type="line"/>
      <point x="734" y="1447" type="line"/>
      <point x="628" y="856" type="line"/>
      <point x="482" y="-6" type="line"/>
      <point x="358" y="-6" type="line"/>
      <point x="203" y="819" type="line"/>
      <point x="79" y="1445" type="line"/>
    </contour>
  </outline>
</glyph>
<glyph name="X" format="2">
	<unicode hex="0058"/>
	<advance width="811"/>
	<outline>
		<contour>
			<point x="-31" y="0" type="line"/>
			<point x="-33" y="22" type="line"/>
			<point x="114" y="54" type="line"/>
			<point x="343" y="706" type="line"/>
			<point x="92" y="1443" type="line"/>
			<point x="-12" y="1477" type="line"/>
			<point x="-12" y="1500" type="line"/>
			<point x="323" y="1500" type="line"/>
			<point x="323" y="1477" type="line"/>
			<point x="258" y="1443" type="line"/>
			<point x="401" y="1021" type="line"/>
			<point x="435" y="919" type="line"/>
			<point x="435" y="919" type="line"/>
			<point x="471" y="1021" type="line"/>
			<point x="623" y="1445" type="line"/>
			<point x="487" y="1477" type="line"/>
			<point x="487" y="1500" type="line"/>
			<point x="777" y="1500" type="line"/>
			<point x="777" y="1477" type="line"/>
			<point x="648" y="1445" type="line"/>
			<point x="446" y="886" type="line"/>
			<point x="727" y="56" type="line"/>
			<point x="830" y="22" type="line"/>
			<point x="830" y="0" type="line"/>
			<point x="466" y="0" type="line"/>
			<point x="466" y="22" type="line"/>
			<point x="563" y="56" type="line"/>
			<point x="391" y="562" type="line"/>
			<point x="354" y="672" type="line"/>
			<point x="354" y="672" type="line"/>
			<point x="316" y="562" type="line"/>
			<point x="141" y="53" type="line"/>
			<point x="266" y="22" type="line"/>
			<point x="266" y="0" type="line"/>
		</contour>
	</outline>
	<anchor name="bottom" x="405.5" y="0"/>
	<anchor name="top" x="405.5" y="1500"/>
</glyph>
<glyph name="underscore" format="2">
  <advance width="677"/>
  <unicode hex="005F"/>
  <outline>
    <contour>
      <point x="-14" y="-555" type="line"/>
      <point x="-14" y="-449" type="line"/>
      <point x="340" y="-447" type="line"/>
      <point x="691" y="-449" type="line"/>
      <point x="691" y="-555" type="line"/>
      <point x="340" y="-555" type="line"/>
    </contour>
  </outline>
</glyph>
<glyph name="l" format="2">
	<unicode hex="006C"/>
	<advance width="354"/>
	<outline>
		<contour>
			<point x="24" y="0" type="line"/>
			<point x="24" y="21" type="line"/>
			<point x="102" y="56" type="line"/>
			<point x="105" y="527" type="line"/>
			<point x="102" y="1432" type="line"/>
			<point x="17" y="1476" type="line"/>
			<point x="17" y="1500" type="line"/>
			<point x="194" y="1512" type="line"/>
			<point x="224" y="1511" type="line"/>
			<point x="245" y="1480" type="line"/>
			<point x="243" y="527" type="line"/>
			<point x="245" y="56" type="line"/>
			<point x="329" y="21" type="line"/>
			<point x="329" y="0" type="line"/>
		</contour>
	</outline>
	<anchor name="bottom" x="177" y="0"/>
	<anchor name="center" x="177" y="750"/>
	<anchor name="top" x="177" y="1512"/>
	<anchor name="topright" x="244" y="920"/>
</glyph>
<glyph name="x" format="2">
	<unicode hex="0078"/>
	<advance width="612"/>
	<outline>
		<contour>
			<point x="-14" y="0" type="line"/>
			<point x="-14" y="24" type="line"/>
			<point x="85" y="57" type="line"/>
			<point x="261" y="426" type="line"/>
			<point x="90" y="862" type="line"/>
			<point x="28" y="897" type="line"/>
			<point x="28" y="920" type="line"/>
			<point x="287" y="920" type="line"/>
			<point x="287" y="897" type="line"/>
			<point x="243" y="863" type="line"/>
			<point x="327" y="631" type="line"/>
			<point x="348" y="572" type="line"/>
			<point x="348" y="572" type="line"/>
			<point x="372" y="631" type="line"/>
			<point x="469" y="866" type="line"/>
			<point x="370" y="897" type="line"/>
			<point x="370" y="920" type="line"/>
			<point x="592" y="920" type="line"/>
			<point x="592" y="897" type="line"/>
			<point x="505" y="864" type="line"/>
			<point x="362" y="533" type="line"/>
			<point x="547" y="59" type="line"/>
			<point x="614" y="24" type="line"/>
			<point x="614" y="0" type="line"/>
			<point x="338" y="0" type="line"/>
			<point x="338" y="24" type="line"/>
			<point x="399" y="56" type="line"/>
			<point x="297" y="329" type="line"/>
			<point x="277" y="384" type="line"/>
			<point x="277" y="384" type="line"/>
			<point x="252" y="329" type="line"/>
			<point x="125" y="55" type="line"/>
			<point x="244" y="24" type="line"/>
			<point x="244" y="0" type="line"/>
		</contour>
	</outline>
	<anchor name="bottom" x="306" y="0"/>
	<anchor name="top" x="306" y="920"/>
</glyph>
<glyph name="logicalnot" format="2">
  <advance width="685"/>
  <unicode hex="00AC"/>
  <outline>
    <contour>
      <point x="95" y="740" type="line"/>
      <point x="626" y="740" type="line"/>
      <point x="626" y="385" type="line"/>
      <point x="530" y="385" type="line"/>
      <point x="530" y="656" type="line"/>
      <point x="95" y="656" type="line"/>
    </contour>
  </outline>
</glyph>
<glyph name="idotless" format="2">
	<unicode hex="0131"/>
	<advance width="353"/>
	<outline>
		<contour>
			<point x="26" y="0" type="line"/>
			<point x="26" y="21" type="line"/>
			<point x="106" y="56" type="line"/>
			<point x="108" y="477" type="line"/>
			<point x="107" y="830" type="line"/>
			<point x="25" y="865" type="line"/>
			<point x="25" y="889" type="line"/>
			<point x="185" y="927" type="line"/>
			<point x="219" y="927" type="line"/>
			<point x="254" y="893" type="line"/>
			<point x="247" y="477" type="line"/>
			<point x="249" y="56" type="line"/>
			<point x="317" y="21" type="line"/>
			<point x="317" y="0" type="line"/>
		</contour>
	</outline>
	<anchor name="bottom" x="176.5" y="0"/>
	<anchor name="top" x="176.5" y="920"/>
	<anchor name="ogonek" x="63" y="0"/>
</glyph>
<glyph name="dieresisbelowcomb" format="2">
	<unicode hex="0324"/>
	<advance width="896"/>
	<outline>
		<contour>
			<point x="256" y="-204" type="qcurve" smooth="yes"/>
			<point x="256" y="-169"/>
			<point x="299" y="-125"/>
			<point x="331" y="-125" type="qcurve" smooth="yes"/>
			<point x="363" y="-125"/>
			<point x="406" y="-168"/>
			<point x="406" y="-204" type="qcurve" smooth="yes"/>
			<point x="406" y="-238"/>
			<point x="363" y="-283"/>
			<point x="331" y="-283" type="qcurve" smooth="yes"/>
			<point x="299" y="-283"/>
			<point x="256" y="-238"/>
		</contour>
		<contour>
			<point x="490" y="-204" type="qcurve" smooth="yes"/>
			<point x="490" y="-169"/>
			<point x="533" y="-125"/>
			<point x="565" y="-125" type="qcurve" smooth="yes"/>
			<point x="597" y="-125"/>
			<point x="640" y="-168"/>
			<point x="640" y="-204" type="qcurve" smooth="yes"/>
			<point x="640" y="-238"/>
			<point x="597" y="-283"/>
			<point x="565" y="-283" type="qcurve" smooth="yes"/>
			<point x="533" y="-283"/>
			<point x="490" y="-238"/>
		</contour>
	</outline>
	<anchor name="_bottom" x="448" y="0"/>
	<anchor name="bottom" x="448" y="-283"/>
</glyph>
<glyph name="macronbelowcomb" format="2">
	<unicode hex="0331"/>
	<advance width="896"/>
	<outline>
		<contour>
			<point x="276" y="-205" type="line"/>
			<point x="276" y="-124" type="line"/>
			<point x="620" y="-124" type="line"/>
			<point x="620" y="-205" type="line"/>
		</contour>
	</outline>
	<anchor name="_bottom" x="448" y="0"/>
	<anchor name="bottom" x="448" y="-205"/>
</glyph>
<glyph name="horizontalbar" format="2">
  <advance width="656"/>
  <unicode hex="2015"/>
  <outline>
    <contour>
      <point x="308" y="748" type="line"/>
      <point x="57" y="748" type="line"/>
      <point x="65" y="792" type="line"/>
      <point x="314" y="792" type="line"/>
      <point x="581" y="792" type="line"/>
      <point x="580" y="748" type="line"/>
    </contour>
  </outline>
</glyph>
<glyph name="divisionslash" format="2">
  <advance width="523"/>
  <unicode hex="2215"/>
  <outline>
    <contour>
      <point x="37" y="-146" type="line"/>
      <point x="469" y="1540" type="line"/>
      <point x="497" y="1536" type="line"/>
      <point x="66" y="-151" type="line"/>
    </contour>
  </outline>
</glyph>
<glyph name="breveacutecomb" format="2">
	<advance width="896"/>
	<outline>
		<contour>
			<point x="614" y="1174" type="qcurve"/>
			<point x="629" y="1167" type="line"/>
			<point x="614" y="1095"/>
			<point x="527" y="998"/>
			<point x="449" y="998" type="qcurve" smooth="yes"/>
			<point x="371" y="998"/>
			<point x="285" y="1088"/>
			<point x="267" y="1165" type="qcurve"/>
			<point x="284" y="1174" type="line"/>
			<point x="302" y="1127"/>
			<point x="390" y="1078"/>
			<point x="450" y="1078" type="qcurve" smooth="yes"/>
			<point x="510" y="1078"/>
			<point x="598" y="1128"/>
		</contour>
		<contour>
			<point x="638.4" y="1435.6000000001" type="qcurve" smooth="yes"/>
			<point x="638.4" y="1415.6000000001"/>
			<point x="622.4" y="1394.6000000001"/>
			<point x="608.4" y="1385.6000000001" type="qcurve" smooth="yes"/>
			<point x="388.4" y="1218.6000000001" type="line"/>
			<point x="381.4" y="1225.6000000001" type="line"/>
			<point x="531.4" y="1452.6000000001" type="line" smooth="yes"/>
			<point x="542.4" y="1469.6000000001"/>
			<point x="569.4" y="1488.6000000001"/>
			<point x="588.4" y="1488.6000000001" type="qcurve" smooth="yes"/>
			<point x="608.4" y="1488.6000000001"/>
			<point x="638.4" y="1455.6000000001"/>
		</contour>
	</outline>
	<anchor name="_top" x="449" y="920"/>
</glyph>
<glyph name="brevegravecomb" format="2">
	<advance width="896"/>
	<outline>
		<contour>
			<point x="614" y="1174" type="qcurve"/>
			<point x="629" y="1167" type="line"/>
			<point x="614" y="1095"/>
			<point x="527" y="998"/>
			<point x="449" y="998" type="qcurve" smooth="yes"/>
			<point x="371" y="998"/>
			<point x="285" y="1088"/>
			<point x="267" y="1165" type="qcurve"/>
			<point x="284" y="1174" type="line"/>
			<point x="302" y="1127"/>
			<point x="390" y="1078"/>
			<point x="450" y="1078" type="qcurve" smooth="yes"/>
			<point x="510" y="1078"/>
			<point x="598" y="1128"/>
		</contour>
		<contour>
			<point x="254.6" y="1450.9000000001" type="qcurve" smooth="yes"/>
			<point x="254.6" y="1472.9000000001"/>
			<point x="286.6" y="1502.9000000001"/>
			<point x="305.6" y="1502.9000000001" type="qcurve" smooth="yes"/>
			<point x="319.6" y="1502.9000000001"/>
			<point x="346.6" y="1481.9000000001"/>
			<point x="357.6" y="1464.9000000001" type="qcurve" smooth="yes"/>
			<point x="516.6" y="1225.9000000001" type="line"/>
			<point x="510.6" y="1219.9000000001" type="line"/>
			<point x="282.6" y="1399.9000000001" type="line" smooth="yes"/>
			<point x="269.6" y="1410.9000000001"/>
			<point x="254.6" y="1435.9000000001"/>
		</contour>
	</outline>
	<anchor name="_top" x="449" y="920"/>
</glyph>
<glyph name="brevehookabovecomb.case" format="2">
	<advance width="896"/>
	<outline>
		<contour>
			<point x="659" y="1801" type="qcurve"/>
			<point x="684" y="1791" type="line"/>
			<point x="665" y="1703"/>
			<point x="545" y="1587"/>
			<point x="447" y="1587" type="qcurve" smooth="yes"/>
			<point x="349" y="1587"/>
			<point x="220" y="1712"/>
			<point x="212" y="1794" type="qcurve"/>
			<point x="245" y="1801" type="line"/>
			<point x="259" y="1758"/>
			<point x="376" y="1687"/>
			<point x="449" y="1688" type="qcurve" smooth="yes"/>
			<point x="522" y="1689"/>
			<point x="639" y="1756"/>
		</contour>
		<contour>
			<point x="324" y="1862.8000000002" type="line"/>
			<point x="324" y="1998.8000000002" type="line"/>
			<point x="363" y="2036.8000000002" type="line"/>
			<point x="380" y="2027.8000000002"/>
			<point x="425" y="2012.8000000002"/>
			<point x="457" y="2012.8000000002" type="qcurve" smooth="yes"/>
			<point x="501" y="2012.8000000002"/>
			<point x="558" y="2063.8000000002"/>
			<point x="558" y="2110.8000000002" type="qcurve" smooth="yes"/>
			<point x="558" y="2156.8000000002"/>
			<point x="487" y="2197.8000000002"/>
			<point x="430" y="2197.8000000002" type="qcurve" smooth="yes"/>
			<point x="367" y="2197.8000000002"/>
			<point x="284" y="2163.8000000002"/>
			<point x="253" y="2136.8000000002" type="qcurve"/>
			<point x="226" y="2163.8000000002" type="line"/>
			<point x="267" y="2211.8000000002"/>
			<point x="386" y="2266.8000000002"/>
			<point x="462" y="2266.8000000002" type="qcurve" smooth="yes"/>
			<point x="544" y="2266.8000000002"/>
			<point x="670" y="2188.8000000002"/>
			<point x="670" y="2104.8000000002" type="qcurve" smooth="yes"/>
			<point x="670" y="2022.8000000002"/>
			<point x="568" y="1947.8000000002"/>
			<point x="498" y="1947.8000000002" type="qcurve" smooth="yes"/>
			<point x="453" y="1947.8000000002"/>
			<point x="394" y="1962.8000000002"/>
			<point x="376" y="1974.8000000002" type="qcurve"/>
			<point x="376" y="1862.8000000002" type="line"/>
		</contour>
	</outline>
	<anchor name="_top" x="447" y="1500"/>
</glyph>
<glyph name="brevehookabovecomb" format="2">
	<advance width="896"/>
	<outline>
		<contour>
			<point x="614" y="1174" type="qcurve"/>
			<point x="629" y="1167" type="line"/>
			<point x="614" y="1095"/>
			<point x="527" y="998"/>
			<point x="449" y="998" type="qcurve" smooth="yes"/>
			<point x="371" y="998"/>
			<point x="285" y="1088"/>
			<point x="267" y="1165" type="qcurve"/>
			<point x="284" y="1174" type="line"/>
			<point x="302" y="1127"/>
			<point x="390" y="1078"/>
			<point x="450" y="1078" type="qcurve" smooth="yes"/>
			<point x="510" y="1078"/>
			<point x="598" y="1128"/>
		</contour>
		<contour>
			<point x="361.5" y="1222.9000000001" type="line"/>
			<point x="361.5" y="1302.9000000001" type="line"/>
			<point x="374.5" y="1331.9000000001" type="line"/>
			<point x="390.5" y="1326.9000000001"/>
			<point x="421.5" y="1321.9000000001"/>
			<point x="435.5" y="1321.9000000001" type="qcurve" smooth="yes"/>
			<point x="478.5" y="1321.9000000001"/>
			<point x="530.5" y="1367.9000000001"/>
			<point x="530.5" y="1405.9000000001" type="qcurve" smooth="yes"/>
			<point x="530.5" y="1444.9000000001"/>
			<point x="473.5" y="1483.9000000001"/>
			<point x="435.5" y="1483.9000000001" type="qcurve" smooth="yes"/>
			<point x="398.5" y="1483.9000000001"/>
			<point x="322.5" y="1468.9000000001"/>
			<point x="275.5" y="1451.9000000001" type="qcurve"/>
			<point x="262.5" y="1466.9000000001" type="line"/>
			<point x="307.5" y="1500.9000000001"/>
			<point x="417.5" y="1535.9000000001"/>
			<point x="470.5" y="1535.9000000001" type="qcurve" smooth="yes"/>
			<point x="543.5" y="1535.9000000001"/>
			<point x="633.5" y="1468.9000000001"/>
			<point x="633.5" y="1405.9000000001" type="qcurve" smooth="yes"/>
			<point x="633.5" y="1344.9000000001"/>
			<point x="535.5" y="1271.9000000001"/>
			<point x="468.5" y="1272.9000000001" type="qcurve" smooth="yes"/>
			<point x="448.5" y="1272.9000000001"/>
			<point x="400.5" y="1276.9000000001"/>
			<point x="381.5" y="1284.9000000001" type="qcurve"/>
			<point x="381.5" y="1222.9000000001" type="line"/>
		</contour>
	</outline>
	<anchor name="_top" x="449" y="920"/>
</glyph>
<glyph name="brevetildecomb" format="2">
	<advance width="896"/>
	<outline>
		<contour>
			<point x="614" y="1174" type="qcurve"/>
			<point x="629" y="1167" type="line"/>
			<point x="614" y="1095"/>
			<point x="527" y="998"/>
			<point x="449" y="998" type="qcurve" smooth="yes"/>
			<point x="371" y="998"/>
			<point x="285" y="1088"/>
			<point x="267" y="1165" type="qcurve"/>
			<point x="284" y="1174" type="line"/>
			<point x="302" y="1127"/>
			<point x="390" y="1078"/>
			<point x="450" y="1078" type="qcurve" smooth="yes"/>
			<point x="510" y="1078"/>
			<point x="598" y="1128"/>
		</contour>
		<contour>
			<point x="255" y="1295" type="line"/>
			<point x="270" y="1333"/>
			<point x="346" y="1426"/>
			<point x="389" y="1426" type="qcurve" smooth="yes"/>
			<point x="418" y="1426"/>
			<point x="460" y="1406"/>
			<point x="484" y="1391" type="qcurve" smooth="yes"/>
			<point x="508" y="1376"/>
			<point x="539" y="1365"/>
			<point x="564" y="1365" type="qcurve" smooth="yes"/>
			<point x="586" y="1365"/>
			<point x="626" y="1383"/>
			<point x="642" y="1404" type="qcurve"/>
			<point x="662" y="1386" type="line"/>
			<point x="644" y="1343"/>
			<point x="572" y="1276"/>
			<point x="538" y="1276" type="qcurve" smooth="yes"/>
			<point x="508" y="1276"/>
			<point x="472" y="1286"/>
			<point x="444" y="1302" type="qcurve" smooth="yes"/>
			<point x="415" y="1318"/>
			<point x="379" y="1337"/>
			<point x="357" y="1337" type="qcurve" smooth="yes"/>
			<point x="333" y="1337"/>
			<point x="286" y="1304"/>
			<point x="273" y="1280" type="qcurve"/>
		</contour>
	</outline>
	<anchor name="_top" x="449" y="920"/>
</glyph>
<glyph name="circumflexacutecomb.case" format="2">
	<advance width="896"/>
	<outline>
		<contour>
			<point x="454" y="1887" type="qcurve" smooth="yes"/>
			<point x="472" y="1887"/>
			<point x="509" y="1848"/>
			<point x="539" y="1808" type="qcurve" smooth="yes"/>
			<point x="696" y="1596" type="line"/>
			<point x="682" y="1587" type="line"/>
			<point x="454" y="1759" type="line"/>
			<point x="216" y="1587" type="line"/>
			<point x="200" y="1604" type="line"/>
			<point x="368" y="1808" type="line" smooth="yes"/>
			<point x="396" y="1843"/>
			<point x="436" y="1887"/>
		</contour>
		<contour>
			<point x="944.0155555555" y="2014.3180451128" type="qcurve" smooth="yes"/>
			<point x="933.0155555555" y="1982.3180451128"/>
			<point x="813.0155555555" y="1922.3180451128"/>
			<point x="783.0155555555" y="1907.3180451128" type="qcurve" smooth="yes"/>
			<point x="628.0155555555" y="1830.3180451128" type="line"/>
			<point x="613.0155555555" y="1851.3180451128" type="line"/>
			<point x="718.0155555555" y="1956.3180451128" type="line" smooth="yes"/>
			<point x="757.0155555555" y="1995.3180451128"/>
			<point x="857.0155555555" y="2106.3180451128"/>
			<point x="891.0155555555" y="2095.3180451128" type="qcurve" smooth="yes"/>
			<point x="923.0155555555" y="2084.3180451128"/>
			<point x="952.0155555555" y="2039.3180451128"/>
		</contour>
	</outline>
	<anchor name="_top" x="454" y="1500"/>
</glyph>
<glyph name="circumflexacutecomb" format="2">
	<advance width="896"/>
	<outline>
		<contour>
			<point x="446" y="1256" type="qcurve" smooth="yes"/>
			<point x="463" y="1256"/>
			<point x="499" y="1208"/>
			<point x="520" y="1173" type="qcurve" smooth="yes"/>
			<point x="627" y="996" type="line"/>
			<point x="614" y="992" type="line"/>
			<point x="446" y="1157" type="line"/>
			<point x="282" y="992" type="line"/>
			<point x="269" y="997" type="line"/>
			<point x="372" y="1173" type="line" smooth="yes"/>
			<point x="397" y="1216"/>
			<point x="429" y="1256"/>
		</contour>
		<contour>
			<point x="822.4999999999" y="1419.6" type="qcurve" smooth="yes"/>
			<point x="822.4999999999" y="1399.6"/>
			<point x="806.4999999999" y="1378.6"/>
			<point x="792.4999999999" y="1369.6" type="qcurve" smooth="yes"/>
			<point x="572.4999999999" y="1202.6" type="line"/>
			<point x="565.4999999999" y="1209.6" type="line"/>
			<point x="715.4999999999" y="1436.6" type="line" smooth="yes"/>
			<point x="726.4999999999" y="1453.6"/>
			<point x="753.4999999999" y="1472.6"/>
			<point x="772.4999999999" y="1472.6" type="qcurve" smooth="yes"/>
			<point x="792.4999999999" y="1472.6"/>
			<point x="822.4999999999" y="1439.6"/>
		</contour>
	</outline>
	<anchor name="_top" x="446" y="920"/>
</glyph>
<glyph name="circumflexgravecomb" format="2">
	<advance width="896"/>
	<outline>
		<contour>
			<point x="446" y="1256" type="qcurve" smooth="yes"/>
			<point x="463" y="1256"/>
			<point x="499" y="1208"/>
			<point x="520" y="1173" type="qcurve" smooth="yes"/>
			<point x="627" y="996" type="line"/>
			<point x="614" y="992" type="line"/>
			<point x="446" y="1157" type="line"/>
			<point x="282" y="992" type="line"/>
			<point x="269" y="997" type="line"/>
			<point x="372" y="1173" type="line" smooth="yes"/>
			<point x="397" y="1216"/>
			<point x="429" y="1256"/>
		</contour>
		<contour>
			<point x="465" y="1432" type="qcurve" smooth="yes"/>
			<point x="465" y="1454"/>
			<point x="497" y="1484"/>
			<point x="516" y="1484" type="qcurve" smooth="yes"/>
			<point x="530" y="1484"/>
			<point x="557" y="1463"/>
			<point x="568" y="1446" type="qcurve" smooth="yes"/>
			<point x="727" y="1207" type="line"/>
			<point x="721" y="1201" type="line"/>
			<point x="493" y="1381" type="line" smooth="yes"/>
			<point x="480" y="1392"/>
			<point x="465" y="1417"/>
		</contour>
	</outline>
	<anchor name="_top" x="446" y="920"/>
</glyph>
<glyph name="circumflexhookabovecomb" format="2">
	<advance width="896"/>
	<outline>
		<contour>
			<point x="446" y="1256" type="qcurve" smooth="yes"/>
			<point x="463" y="1256"/>
			<point x="499" y="1208"/>
			<point x="520" y="1173" type="qcurve" smooth="yes"/>
			<point x="627" y="996" type="line"/>
			<point x="614" y="992" type="line"/>
			<point x="446" y="1157" type="line"/>
			<point x="282" y="992" type="line"/>
			<point x="269" y="997" type="line"/>
			<point x="372" y="1173" type="line" smooth="yes"/>
			<point x="397" y="1216"/>
			<point x="429" y="1256"/>
		</contour>
		<contour>
			<point x="623" y="1198" type="line"/>
			<point x="623" y="1278" type="line"/>
			<point x="636" y="1307" type="line"/>
			<point x="652" y="1302"/>
			<point x="683" y="1297"/>
			<point x="697" y="1297" type="qcurve" smooth="yes"/>
			<point x="740" y="1297"/>
			<point x="792" y="1343"/>
			<point x="792" y="1381" type="qcurve" smooth="yes"/>
			<point x="792" y="1420"/>
			<point x="735" y="1459"/>
			<point x="697" y="1459" type="qcurve" smooth="yes"/>
			<point x="660" y="1459"/>
			<point x="584" y="1444"/>
			<point x="537" y="1427" type="qcurve"/>
			<point x="524" y="1442" type="line"/>
			<point x="569" y="1476"/>
			<point x="679" y="1511"/>
			<point x="732" y="1511" type="qcurve" smooth="yes"/>
			<point x="805" y="1511"/>
			<point x="895" y="1444"/>
			<point x="895" y="1381" type="qcurve" smooth="yes"/>
			<point x="895" y="1320"/>
			<point x="797" y="1247"/>
			<point x="730" y="1248" type="qcurve" smooth="yes"/>
			<point x="710" y="1248"/>
			<point x="662" y="1252"/>
			<point x="643" y="1260" type="qcurve"/>
			<point x="643" y="1198" type="line"/>
		</contour>
	</outline>
	<anchor name="_top" x="446" y="920"/>
</glyph>
<glyph name="circumflextildecomb.case" format="2">
	<advance width="896"/>
	<outline>
		<contour>
			<point x="454" y="1887" type="qcurve" smooth="yes"/>
			<point x="472" y="1887"/>
			<point x="509" y="1848"/>
			<point x="539" y="1808" type="qcurve" smooth="yes"/>
			<point x="696" y="1596" type="line"/>
			<point x="682" y="1587" type="line"/>
			<point x="454" y="1759" type="line"/>
			<point x="216" y="1587" type="line"/>
			<point x="200" y="1604" type="line"/>
			<point x="368" y="1808" type="line" smooth="yes"/>
			<point x="396" y="1843"/>
			<point x="436" y="1887"/>
		</contour>
		<contour>
			<point x="220.5" y="1996.4" type="line"/>
			<point x="236.5" y="2035.4"/>
			<point x="322.5" y="2129.4"/>
			<point x="374.5" y="2129.4" type="qcurve" smooth="yes"/>
			<point x="402.5" y="2129.4"/>
			<point x="450.5" y="2114.4"/>
			<point x="477.5" y="2096.4" type="qcurve" smooth="yes"/>
			<point x="503.5" y="2077.4"/>
			<point x="538.5" y="2067.4"/>
			<point x="566.5" y="2067.4" type="qcurve" smooth="yes"/>
			<point x="590.5" y="2067.4"/>
			<point x="634.5" y="2088.4"/>
			<point x="651.5" y="2110.4" type="qcurve"/>
			<point x="675.5" y="2088.4" type="line"/>
			<point x="655.5" y="2045.4"/>
			<point x="575.5" y="1977.4"/>
			<point x="537.5" y="1977.4" type="qcurve" smooth="yes"/>
			<point x="503.5" y="1977.4"/>
			<point x="463.5" y="1987.4"/>
			<point x="431.5" y="2004.4" type="qcurve" smooth="yes"/>
			<point x="399.5" y="2020.4"/>
			<point x="359.5" y="2039.4"/>
			<point x="336.5" y="2039.4" type="qcurve" smooth="yes"/>
			<point x="307.5" y="2039.4"/>
			<point x="254.5" y="2006.4"/>
			<point x="240.5" y="1981.4" type="qcurve"/>
		</contour>
	</outline>
	<anchor name="_top" x="454" y="1500"/>
</glyph>
<glyph name="circumflextildecomb" format="2">
	<advance width="896"/>
	<outline>
		<contour>
			<point x="446" y="1256" type="qcurve" smooth="yes"/>
			<point x="463" y="1256"/>
			<point x="499" y="1208"/>
			<point x="520" y="1173" type="qcurve" smooth="yes"/>
			<point x="627" y="996" type="line"/>
			<point x="614" y="992" type="line"/>
			<point x="446" y="1157" type="line"/>
			<point x="282" y="992" type="line"/>
			<point x="269" y="997" type="line"/>
			<point x="372" y="1173" type="line" smooth="yes"/>
			<point x="397" y="1216"/>
			<point x="429" y="1256"/>
		</contour>
		<contour>
			<point x="244.5" y="1357.8" type="line"/>
			<point x="259.5" y="1395.8"/>
			<point x="335.5" y="1488.8"/>
			<point x="378.5" y="1488.8" type="qcurve" smooth="yes"/>
			<point x="407.5" y="1488.8"/>
			<point x="449.5" y="1468.8"/>
			<point x="473.5" y="1453.8" type="qcurve" smooth="yes"/>
			<point x="497.5" y="1438.8"/>
			<point x="528.5" y="1427.8"/>
			<point x="553.5" y="1427.8" type="qcurve" smooth="yes"/>
			<point x="575.5" y="1427.8"/>
			<point x="615.5" y="1445.8"/>
			<point x="631.5" y="1466.8" type="qcurve"/>
			<point x="651.5" y="1448.8" type="line"/>
			<point x="633.5" y="1405.8"/>
			<point x="561.5" y="1338.8"/>
			<point x="527.5" y="1338.8" type="qcurve" smooth="yes"/>
			<point x="497.5" y="1338.8"/>
			<point x="461.5" y="1348.8"/>
			<point x="433.5" y="1364.8" type="qcurve" smooth="yes"/>
			<point x="404.5" y="1380.8"/>
			<point x="368.5" y="1399.8"/>
			<point x="346.5" y="1399.8" type="qcurve" smooth="yes"/>
			<point x="322.5" y="1399.8"/>
			<point x="275.5" y="1366.8"/>
			<point x="262.5" y="1342.8" type="qcurve"/>
		</contour>
	</outline>
	<anchor name="_top" x="446" y="920"/>
</glyph>
<glyph name="gravecombstack.case" format="2">
	<advance width="896"/>
	<outline>
		<contour>
			<point x="244" y="1771" type="qcurve" smooth="yes"/>
			<point x="236" y="1796"/>
			<point x="265" y="1841"/>
			<point x="297" y="1852" type="qcurve" smooth="yes"/>
			<point x="331" y="1863"/>
			<point x="431" y="1752"/>
			<point x="470" y="1713" type="qcurve" smooth="yes"/>
			<point x="575" y="1608" type="line"/>
			<point x="560" y="1587" type="line"/>
			<point x="405" y="1664" type="line" smooth="yes"/>
			<point x="375" y="1679"/>
			<point x="255" y="1739"/>
		</contour>
	</outline>
	<anchor name="_top" x="448" y="1500"/>
	<anchor name="top" x="448" y="1853.8195488722"/>
</glyph>
<glyph name="idot" format="2">
  <advance width="353"/>
  <anchor x="176.5" y="920" name="_top"/>
  <outline>
    <contour>
      <point x="89" y="1198" type="qcurve" smooth="yes"/>
      <point x="89" y="1233"/>
      <point x="139" y="1286"/>
      <point x="178" y="1286" type="qcurve" smooth="yes"/>
      <point x="217" y="1286"/>
      <point x="268" y="1233"/>
      <point x="268" y="1198" type="qcurve" smooth="yes"/>
      <point x="268" y="1162"/>
      <point x="217" y="1108"/>
      <point x="178" y="1108" type="qcurve" smooth="yes"/>
      <point x="139" y="1108"/>
      <point x="89" y="1161"/>
    </contour>
  </outline>
</glyph>
<glyph name="kai-tail" format="2">
	<advance width="678"/>
	<outline>
		<contour>
			<point x="328" y="-476" type="qcurve" smooth="yes"/>
			<point x="211" y="-476"/>
			<point x="7" y="-360"/>
			<point x="-71" y="-219" type="qcurve"/>
			<point x="-41" y="-199" type="line"/>
			<point x="28" y="-292"/>
			<point x="202" y="-411"/>
			<point x="316" y="-411" type="qcurve" smooth="yes"/>
			<point name="inserted" x="433" y="-411"/>
			<point x="637" y="-214"/>
			<point x="635" y="46" type="qcurve"/>
			<point x="740" y="41" type="line"/>
			<point x="733" y="-236"/>
			<point x="505" y="-476"/>
		</contour>
	</outline>
</glyph>
<glyph name="macronbelowcomb.case" format="2">
	<advance width="896"/>
	<outline>
		<contour>
			<point x="237" y="-285" type="line"/>
			<point x="237" y="-206" type="line"/>
			<point x="659" y="-206" type="line"/>
			<point x="659" y="-285" type="line"/>
		</contour>
	</outline>
	<anchor name="_bottom" x="448" y="0"/>
	<anchor name="bottom" x="448" y="-285"/>
</glyph>
<glyph name="zero.lc" format="2">
	<advance width="713"/>
	<outline>
		<contour>
			<point x="34" y="463" type="qcurve" smooth="yes"/>
			<point x="34" y="686"/>
			<point x="215" y="956"/>
			<point x="350" y="956" type="qcurve" smooth="yes"/>
			<point x="485" y="956"/>
			<point x="679" y="692"/>
			<point x="679" y="468" type="qcurve" smooth="yes"/>
			<point x="679" y="244"/>
			<point x="502" y="-20"/>
			<point x="365" y="-20" type="qcurve" smooth="yes"/>
			<point x="229" y="-20"/>
			<point x="34" y="227"/>
		</contour>
		<contour>
			<point x="179" y="481" type="qcurve" smooth="yes"/>
			<point x="179" y="203"/>
			<point x="286" y="6"/>
			<point x="356" y="6" type="qcurve" smooth="yes"/>
			<point x="429" y="6"/>
			<point x="534" y="189"/>
			<point x="533" y="462" type="qcurve" smooth="yes"/>
			<point x="533" y="721"/>
			<point x="418" y="928"/>
			<point x="350" y="928" type="qcurve" smooth="yes"/>
			<point x="277" y="928"/>
			<point x="179" y="730"/>
		</contour>
	</outline>
</glyph>
